<svg xmlns="http://www.w3.org/2000/svg" viewBox="0 0 747.19 270.25"><defs><style>.cls-1,.cls-4{fill:#17b7bb;}.cls-2{fill:none;stroke:#221e1f;stroke-miterlimit:10;stroke-width:0.25px;}.cls-3{fill:#ccebf1;}.cls-4{font-size:165.82px;font-family:Alisha-Regular, Alisha;}</style></defs><g id="Layer_2" data-name="Layer 2"><g id="Layer_1-2" data-name="Layer 1"><path class="cls-1" d="M30.66,30.65V49.21A85.73,85.73,0,0,0,0,91.09V0A30.64,30.64,0,0,1,30.66,30.65Z"/><path class="cls-2" d="M79.7,166.05h-.06"/><path class="cls-3" d="M163.61,117.69c.37,67.61-79,106-131.67,64.87,8.43-1,24.84-4,33.43-7.89a63.79,63.79,0,0,0,11.15-6.3h0a50.74,50.74,0,0,0,6.15-5c6.19-6,8-10.83,12.59-18.26a88.22,88.22,0,0,1,13.83-18A69.93,69.93,0,0,1,126,115a67.85,67.85,0,0,1,19.31-6.49A63.76,63.76,0,0,1,163,108,81.32,81.32,0,0,1,163.61,117.69Z"/><path class="cls-1" d="M163,108h0a82.07,82.07,0,0,0-21.41,2c-5.88,1.33-13.68,3.17-22.07,8.67a62.28,62.28,0,0,0-15.7,15.2c-6.21,8.08-6.58,11.93-13.62,20.89a95.08,95.08,0,0,1-9.56,10.44c-1.25-.14-2.74-.35-4.41-.66s-3.45-.73-5.38-1.29a58.61,58.61,0,0,1-13.25-5.76,60.37,60.37,0,0,1-6.64-5c-1.48-1.28-2.8-2.55-4-3.78a29.88,29.88,0,0,0,6.7-2,32.14,32.14,0,0,0,8.14-5.11,43,43,0,0,0,7.82-8.35s5-6,11.52-12.17a71,71,0,0,1,20.57-14.3A71.8,71.8,0,0,1,163,108Z"/><path class="cls-1" d="M76.52,168.37a64.16,64.16,0,0,1-11.15,6.3c-8.58,3.89-25,6.87-33.43,7.89-.36-.27-.72-.55-1.07-.84l-.24-.19A81.69,81.69,0,0,1,0,120.11v-4.84A81.66,81.66,0,0,1,30.63,53.86l.24-.19V116C30.66,143.4,50.46,165.89,76.52,168.37Z"/><path class="cls-3" d="M35.13,50.54v46.9C38,91.21,45.67,77.77,61.81,70.84a48.43,48.43,0,0,1,6.12-2.17A39.8,39.8,0,0,0,96,37.12,82.2,82.2,0,0,0,35.13,50.54Z"/><path class="cls-1" d="M393.69,136.24c-1,1.71-2.34,3.24-3.21,5-.72,1.45-1.46,3.57-.54,5.1a.55.55,0,0,0,.94-.56,3,3,0,0,1-.09-2.26,9,9,0,0,1,.94-2.33c.86-1.54,2-2.92,2.9-4.44a.54.54,0,0,0-.94-.55Z"/><path class="cls-1" d="M393.2,136.33c-1.5,2.55-3.18,5.13-3.74,8.08-.13.68.92,1,1.05.29.54-2.86,2.18-5.35,3.63-7.82a.54.54,0,0,0-.94-.55Z"/><text class="cls-4" transform="translate(189.1 165.45)">lucio chen</text><path class="cls-1" d="M356.35,136.24a3.31,3.31,0,0,0-.44,1.54,9.51,9.51,0,0,1-.31,1.59,8.88,8.88,0,0,1-1.47,2.95l1,.27,0-1.12a2.89,2.89,0,0,1,.05-1.06,12.7,12.7,0,0,1,.89-2c.17-.33.34-.64.52-1a3.2,3.2,0,0,1,.53-.82c.4-.38,1.16-.26,1.66-.47a.57.57,0,0,0,.38-.67.54.54,0,0,0-.67-.38c-.67.28-1.43.15-2,.64a6.12,6.12,0,0,0-1.28,2,19,19,0,0,0-1,2.25,7.26,7.26,0,0,0-.08,2.59.55.55,0,0,0,1,.28,10.09,10.09,0,0,0,1.51-3,10.33,10.33,0,0,0,.36-1.65,3,3,0,0,1,.35-1.45c.39-.58-.55-1.13-.95-.55Z"/><path class="cls-1" d="M354.72,137.86a1.34,1.34,0,0,0,0,.35l0,.24s0,.07,0,.11a.4.4,0,0,0,.1.18.36.36,0,0,0,.16.14.37.37,0,0,0,.2.07.42.42,0,0,0,.22,0l.13-.06a.5.5,0,0,0,.19-.19l.06-.13a.71.71,0,0,0,0-.29.35.35,0,0,1,0-.14l0,.15a1,1,0,0,1,0-.25l0,.15v0a.33.33,0,0,0,0-.22.36.36,0,0,0-.06-.2.44.44,0,0,0-.14-.16.42.42,0,0,0-.19-.09l-.14,0a.55.55,0,0,0-.28.07l-.11.09a.58.58,0,0,0-.14.24Z"/><path class="cls-1" d="M354.71,135.83a16.16,16.16,0,0,0-.84,1.85.56.56,0,0,0,.26.62c.12.07-.21-.19-.13-.19v.14l0,.33a6.91,6.91,0,0,1-.16.79,1.8,1.8,0,0,0-.06.22c0,.17.1-.07.21-.15s.07,0,0,0l-.19-.06-.35-.13a1.08,1.08,0,0,1-.21-.11s.06.08,0,0,0,0,0,0v0l0,0c-.05.07,0-.08,0-.08s.15-.13.11-.1l.32-.21a3.53,3.53,0,0,1,1.25-.6.54.54,0,1,0-.29-1.05,4.72,4.72,0,0,0-1.6.76,1.61,1.61,0,0,0-.93,1.48c.1.71.81.91,1.39,1.12a1,1,0,0,0,.95-.07,1.53,1.53,0,0,0,.41-.91,8.58,8.58,0,0,0,.18-1.13,1,1,0,0,0-.4-1l.25.62a11.93,11.93,0,0,1,.72-1.59.54.54,0,0,0-.19-.74.55.55,0,0,0-.75.19Z"/><path class="cls-1" d="M354.67,140.83a.82.82,0,0,0-.61-.58,1,1,0,0,0-.46,0,.52.52,0,0,0-.16.06l-.15.07a1.11,1.11,0,0,0-.32.36,1.16,1.16,0,0,0-.13.37,2.68,2.68,0,0,0,0,.8,1.06,1.06,0,0,0,.51.75.56.56,0,0,0,.42.06.56.56,0,0,0,.33-.25.52.52,0,0,0,.05-.42.55.55,0,0,0-.25-.33l-.06,0,.11.08-.07-.07.09.11a.75.75,0,0,1-.07-.12l.05.13a1.22,1.22,0,0,1-.06-.26l0,.14a1.7,1.7,0,0,1,0-.45l0,.15a.8.8,0,0,1,.05-.21l-.05.13a.39.39,0,0,1,.06-.11l-.08.11a.27.27,0,0,1,.07-.08l-.11.08.09,0-.13.06a.27.27,0,0,1,.12,0l-.14,0h.11l-.14,0,.09,0-.13,0,.07,0-.11-.08s0,0,0,0l-.08-.11,0,.06-.05-.13s0,0,0,0a.56.56,0,0,0,.67.38.55.55,0,0,0,.38-.67Z"/><path class="cls-1" d="M390.56,138.82c-.41.33-.84.66-1.25,1a2,2,0,0,0-.45.51c-.12.21-.2.43-.32.64-.23.37-.65.6-.84,1a.92.92,0,0,0,0,.76,2.31,2.31,0,0,1,.26.55,3.4,3.4,0,0,0,.08.64c.07.2.24.32.33.49a1.75,1.75,0,0,0,.29.47.83.83,0,0,0,.76.23c.16,0,.32-.14.47-.17l.23,0a.83.83,0,0,0,.48-.15,1.49,1.49,0,0,0,.53-1.3c0-.53-.27-1-.33-1.5a.83.83,0,0,1,.47-.9.55.55,0,0,0,.38-.67.54.54,0,0,0-.67-.38,1.92,1.92,0,0,0-1.28,1.85,6,6,0,0,0,.28,1.25c.05.19.17.68-.06.78l.27-.08c-.15,0-.29,0-.44,0a1.14,1.14,0,0,0-.48.16h0c-.14,0-.08.06.17.08,0,0,0,0,0-.07a1.91,1.91,0,0,0-.16-.32c-.05-.07-.11-.13-.16-.19s0,0,0,0c0-.16,0-.35,0-.52a2,2,0,0,0-.18-.5,1.08,1.08,0,0,0-.11-.18.47.47,0,0,1-.05-.1.17.17,0,0,1,0,.17c0,.05,0,0,0,0l.06,0,.18-.17a3,3,0,0,0,.28-.33,4.85,4.85,0,0,0,.52-.88,2.44,2.44,0,0,1,.67-.65l.9-.72a.54.54,0,0,0,0-.77.56.56,0,0,0-.77,0Z"/><path class="cls-1" d="M392.53,137.26a1.19,1.19,0,0,0-1.12.3c-.34.26-.67.54-1,.82a2.92,2.92,0,0,0-1.32,1.85,4.5,4.5,0,0,0,.14,1.31c.08.43.18.87.29,1.3s.36,2.29,1.33,1.76c.62-.33.07-1.27-.55-.94l0,0,.42-.05-.05,0,.24.14q.09.08,0-.09c0-.08-.05-.16-.07-.24l-.13-.46c-.08-.32-.16-.63-.23-.94s-.12-.56-.17-.83a2.78,2.78,0,0,1-.1-.86c.06-.44.51-.77.83-1l.74-.61c.12-.1.24-.21.37-.3l.12-.08s.06,0,0,0c.67.21,1-.84.29-1.05Z"/><path class="cls-1" d="M388.73,139.92a5.78,5.78,0,0,1-1.55,2.05,7.7,7.7,0,0,0-1.82,2.12c-.34.61.6,1.17.94.55a5.68,5.68,0,0,1,.72-1,13.74,13.74,0,0,1,1.05-1,6.35,6.35,0,0,0,1.6-2.17.57.57,0,0,0-.19-.75.54.54,0,0,0-.75.2Z"/><path class="cls-1" d="M388,141.07a5.81,5.81,0,0,0-.2,1.66h0s0,.05,0,.08a1.18,1.18,0,0,1,0,.2l0,.09c0,.05,0,0,0,0l-.09.18a.9.9,0,0,0,.07,1.13.54.54,0,0,0,.77-.77.3.3,0,0,1,.08.21c0-.06,0-.05,0,0s0-.06,0,0a.59.59,0,0,1,0-.08,2.53,2.53,0,0,0,.18-.37,3.45,3.45,0,0,0,.15-.79c0-.23,0-.46,0-.69,0,0,0-.11,0-.16s0-.06,0,0,0-.06,0-.09a2,2,0,0,1,.09-.35.54.54,0,0,0-.38-.67.56.56,0,0,0-.67.38Z"/><path class="cls-1" d="M388.47,140.45l-1.77,1.72a3.85,3.85,0,0,0-1.19,1.78.55.55,0,0,0,.8.61l.2-.1.1-.05.05,0c.15-.06.3-.09.46-.14a1.89,1.89,0,0,0,.5-.23l.19-.12c.07-.06-.08,0,0,0l.11,0a3.33,3.33,0,0,0,.81-.26,1.24,1.24,0,0,0,.55-1,4.65,4.65,0,0,0-.08-1.05,1,1,0,0,0-1.71-.54,4,4,0,0,0-.56.9l-.58,1a2.39,2.39,0,0,1-.12.22c0-.07,0,0,0,0s.08,0,0,0a2.25,2.25,0,0,0-.47.34.56.56,0,0,0,0,.77.54.54,0,0,0,.77,0l.07-.06s-.06,0,0,0l.15-.1a1.87,1.87,0,0,0,.35-.28,5,5,0,0,0,.48-.8l.44-.81.2-.36s.12-.16.06-.09l.06-.07s.05,0,0,0l.09-.05s-.06,0-.07,0a.22.22,0,0,1-.17-.07s-.07-.1,0,0,0,.07,0,0,0,0,0,0a.43.43,0,0,0,0,.11c0,.07,0-.11,0,0s0,.06,0,.08,0,.14,0,.21,0,.29,0,.43v.11s0,.09,0,0v0c0-.08,0,0,0,0h0s-.07,0,0,0h0c-.12,0,.07,0,0,0a4.91,4.91,0,0,0-.63.17,2.17,2.17,0,0,0-.45.24l-.09.06s-.07,0,0,0a1.29,1.29,0,0,1-.21.06,4,4,0,0,0-1,.39l.8.62a1.42,1.42,0,0,1,.07-.22s0-.11,0,0l0-.09.12-.2a.61.61,0,0,0,.07-.1s.05-.06,0,0a9.16,9.16,0,0,1,.68-.71l1.68-1.64a.54.54,0,0,0,0-.77.55.55,0,0,0-.77,0Z"/><path class="cls-1" d="M354.81,133.51a3.85,3.85,0,0,0-.19.47,3,3,0,0,0-.08.51l0-.29c0,.05,0,.08,0,.12l.11-.26c-.1.21-.22.4-.34.6a4.65,4.65,0,0,1-.34.56l.17-.23a.86.86,0,0,1-.13.14l.22-.17,0,0,1.6,1.23a1.8,1.8,0,0,0,0-1l-.76,1.35.24-.07a1.52,1.52,0,0,0,.64-.37,1.29,1.29,0,0,0,.35-.61,1.21,1.21,0,0,0,0-.5.8.8,0,0,0-.09-.3,1.11,1.11,0,0,0-.07-.16.86.86,0,0,0-.29-.31.78.78,0,0,0-.37-.2,1.09,1.09,0,0,0-1.34.77,1.07,1.07,0,0,0,.11.84l0,0-.11-.26v0l0-.29a.06.06,0,0,1,0,0l0-.29s0,0,0,.07l.11-.26,0,.06.17-.22s0,0,0,0l.22-.18-.07.05.27-.11c-.11,0-.22.05-.32.09a.83.83,0,0,0-.37.2.8.8,0,0,0-.28.3l-.11.26a1,1,0,0,0,0,.58v0l0-.29a.49.49,0,0,1,0,.17l0-.29a.94.94,0,0,1,0,.16l0,.29,0,.29a1.13,1.13,0,0,0,.39.57.58.58,0,0,0,.24.14.55.55,0,0,0,.28.07,1,1,0,0,0,.69-.13,1.74,1.74,0,0,0,.36-.3,3.27,3.27,0,0,0,.28-.37l.25-.41.24-.43a2.62,2.62,0,0,0,.21-.45,2.46,2.46,0,0,0,.08-.46l0,.29a1.68,1.68,0,0,1,.09-.32l-.11.26,0-.06a.86.86,0,0,0,.13-.41.9.9,0,0,0,0-.43,1.1,1.1,0,0,0-1.35-.77,1.1,1.1,0,0,0-.65.51Z"/><path class="cls-1" d="M354.63,133.86a3.44,3.44,0,0,0-.28.65,3.6,3.6,0,0,1-.12.44l.11-.26a1.22,1.22,0,0,1-.12.19l.17-.23a2.29,2.29,0,0,1-.44.44l.22-.17a7.9,7.9,0,0,0-.79.61,3.31,3.31,0,0,0-.58.77,1.15,1.15,0,0,0-.11.85,1.09,1.09,0,0,0,2,.26,2,2,0,0,1,.2-.31l-.17.22a2.5,2.5,0,0,1,.43-.43l-.22.17a5.86,5.86,0,0,0,1-.81,2.35,2.35,0,0,0,.48-.86,2.88,2.88,0,0,1,.15-.5l-.11.26.09-.19a1.17,1.17,0,0,0,.11-.84,1.15,1.15,0,0,0-.5-.66,1.12,1.12,0,0,0-.84-.11,1.1,1.1,0,0,0-.65.51Z"/><path class="cls-1" d="M354.32,136.79c-.47.71-1,1.4-1.48,2.08l.17-.22-.8,1,1.86.77c0-.06,0-.11,0-.17l0,.29q.09-.6.24-1.2l-2.11-.58-.12.6a1.07,1.07,0,0,0,.11.84,1.09,1.09,0,0,0,2-.26l.13-.6a1.09,1.09,0,0,0-.77-1.34,1.11,1.11,0,0,0-1.34.76,13.41,13.41,0,0,0-.29,1.66l0,.29.11.26a1,1,0,0,0,.52.45,1,1,0,0,0,.56.07,1,1,0,0,0,.63-.3,35.52,35.52,0,0,0,2.45-3.29,1.09,1.09,0,0,0-.39-1.49,1.11,1.11,0,0,0-1.49.39Z"/><path class="cls-1" d="M354.17,137.75a3.09,3.09,0,0,0,1.85-1.27,1.08,1.08,0,0,0-.17-1.32,1.15,1.15,0,0,0-1.32-.17,1.76,1.76,0,0,0-.74.74c-.12.2-.19.42-.32.62,0,0-.06.13-.09.13l0,0-.07.09-.26.31c-.18.22-.37.43-.56.64-.37.4-.76.79-1.17,1.16l-.61.53-.35.27c-.12.1.21-.15,0,0l-.2.15a1.2,1.2,0,0,0-.5.65,1.12,1.12,0,0,0,.11.84,1.1,1.1,0,0,0,1.49.39l.55-.29c.09,0,.18-.09.27-.12-.28.1.07,0,.12-.05l.54-.16c0,.09-.43-.05-.19,0l.33.08c.39.09.79.16,1.18.22a2.25,2.25,0,0,0,1.69-.15,1.1,1.1,0,0,0-1.11-1.89c-.1.07-.07.06.08,0s.21,0,.09,0,.25,0,0,0l-.63-.11c-.4-.07-.78-.18-1.17-.25a2.58,2.58,0,0,0-1.5.23,9.21,9.21,0,0,0-1.31.62l1.1,1.88a19.73,19.73,0,0,0,2.67-2.33c.37-.4.73-.82,1.07-1.26a3.82,3.82,0,0,0,.51-.79c.05-.1.11-.2.15-.3s-.18.17,0,.05l-.13.1.1-.06-1.49-1.49s.14-.16,0-.06l-.12.13s-.16.12,0,0,0,0-.06,0l-.12.07c-.15.09.06,0,.07,0l-.33.09a1.11,1.11,0,0,0-.77,1.34,1.13,1.13,0,0,0,1.35.77Z"/><path class="cls-1" d="M390.59,136.77l-.47.57,1.71,1.32a5.6,5.6,0,0,0,.35-.74,4.72,4.72,0,0,0,.18-.53.79.79,0,0,0,0-.43.86.86,0,0,0-.13-.41.81.81,0,0,0-.28-.3.89.89,0,0,0-.37-.2l-.29,0a1.06,1.06,0,0,0-.55.15l-.22.17a1.07,1.07,0,0,0-.28.48,3.13,3.13,0,0,1-.19.54l.11-.26a4.16,4.16,0,0,1-.24.47.85.85,0,0,0-.12.41.79.79,0,0,0,0,.43l.11.26a.86.86,0,0,0,.29.31.48.48,0,0,0,.24.14.76.76,0,0,0,.42.09l.29,0a1.07,1.07,0,0,0,.48-.28l.48-.57a.8.8,0,0,0,.22-.35,1.14,1.14,0,0,0-.22-1.19l-.22-.17a1.08,1.08,0,0,0-.55-.15l-.29,0a1.05,1.05,0,0,0-.49.28Z"/><path class="cls-1" d="M390.9,136.09c0,.06-.06.13,0,0l-.11.23c-.06.13-.12.25-.19.38l-.45.85c-.25.49-.5,1-.78,1.47-.12.21-.25.42-.38.63l-.22.32c-.07.1-.05.05,0,0l-.11.14a5.39,5.39,0,0,1-.53.54l-.13.11c.07-.06.12-.09,0,0l-.37.22,1.49,1.49c.45-.89.94-1.76,1.46-2.61l.39-.61c.06-.09.13-.18.18-.27h0l.09-.1c.08-.09.16-.16.24-.24l.15-.12c-.08.06-.1.07,0,0l.6-.4a1.09,1.09,0,0,0-1.1-1.88,6.83,6.83,0,0,0-1.3,1,7.33,7.33,0,0,0-1,1.35c-.57.91-1.09,1.84-1.57,2.79a1.09,1.09,0,0,0,1.49,1.49,6.64,6.64,0,0,0,2.45-2.62c.3-.51.56-1,.83-1.54a19.68,19.68,0,0,0,1-2,1.1,1.1,0,0,0-.76-1.35,1.12,1.12,0,0,0-1.34.77Z"/><path class="cls-1" d="M387.89,139.64a16.44,16.44,0,0,1-1.13,1.72l.18-.22a20.26,20.26,0,0,0-1.59,1.88,1.09,1.09,0,0,0,1.89,1.1c.05-.09.12-.19.18-.28l-.17.22a8.05,8.05,0,0,1,.63-.68,11.9,11.9,0,0,0,.79-.94,19.07,19.07,0,0,0,1.11-1.7,1.09,1.09,0,0,0-1.89-1.1Z"/><path class="cls-1" d="M393.45,134.38h0l.29,0-.07,0,.26.11a2.53,2.53,0,0,1-.22-.13,1.52,1.52,0,0,0-.73-.22,1.77,1.77,0,0,0-1,.17,1.58,1.58,0,0,0-.67.75,2.73,2.73,0,0,1-.32.55l.17-.22c-.14.18-.3.35-.43.55s-.15.27-.24.4l.17-.22a3.3,3.3,0,0,1-.61.57,1.1,1.1,0,0,0,0,1.55,1.12,1.12,0,0,0,.77.32l.29,0a1.05,1.05,0,0,0,.48-.28,1.71,1.71,0,0,0,.45-.77l-.11.27a1.26,1.26,0,0,1,.13-.23l-.17.22.15-.17a1.1,1.1,0,0,0,0-1.54,1.12,1.12,0,0,0-1.54,0,2.43,2.43,0,0,0-.6,1l.11-.26-.08.13.17-.22-.05,0,1.54,1.55a4,4,0,0,0,.53-.48,4,4,0,0,0,.35-.46,2.33,2.33,0,0,1,.2-.34l-.17.22a7,7,0,0,0,.53-.69c.11-.18.17-.39.29-.56l-.17.22a.34.34,0,0,1,.09-.08l-.22.17a.21.21,0,0,1,.1-.06l-.26.11.08,0-.29,0H393l-.29,0,.12,0-.26-.11.22.13a1.59,1.59,0,0,0,.71.21,1.09,1.09,0,0,0,1.09-1.09,1.06,1.06,0,0,0-.32-.77,1.21,1.21,0,0,0-.77-.32Z"/><path class="cls-1" d="M391.1,135.19a3.42,3.42,0,0,0-.17.4s0,.1-.05.14l.11-.26v0l.17-.22,0,0,.22-.17a4.87,4.87,0,0,0-.43.33,4.58,4.58,0,0,0-.35.42l-.11.26,0,.29,0,.29a.75.75,0,0,0,.2.37.52.52,0,0,0,.19.2.72.72,0,0,0,.24.14.55.55,0,0,0,.28.07.79.79,0,0,0,.43,0l.27-.11h0l.12-.1a.53.53,0,0,0,.12-.1,1.06,1.06,0,0,0,.22-.29l.13-.19-.17.23a.86.86,0,0,1,.07-.1l.17-.22a.73.73,0,0,0,.13-.4.48.48,0,0,0,0-.29.76.76,0,0,0-.13-.41l-.17-.22-.22-.17a.82.82,0,0,0-.4-.13.94.94,0,0,0-.44,0,1.15,1.15,0,0,0-.53.31,1.2,1.2,0,0,0-.32.53.9.9,0,0,0,0,.43.86.86,0,0,0,.13.41l.17.22a.87.87,0,0,0,.35.22.57.57,0,0,0,.28.08.9.9,0,0,0,.43,0l.26-.11a1.15,1.15,0,0,0,.4-.39.16.16,0,0,1,0-.07l-.17.22a1.53,1.53,0,0,1,.18-.18,2.56,2.56,0,0,0,.2-.26l0,0a1.69,1.69,0,0,0,.13-.31v0l0-.29v0a1.06,1.06,0,0,0-.15-.55,1.21,1.21,0,0,0-.39-.39,1.11,1.11,0,0,0-1.1,0,.9.9,0,0,0-.27.21l-.09.11-.09.12,0,0s0,.07-.06.11l.17-.22,0,0,.23-.17,0,0,.26-.11h0a1.29,1.29,0,0,0-.65.5.86.86,0,0,0-.13.41.9.9,0,0,0,0,.43l.11.27a1.21,1.21,0,0,0,.39.39l.26.11a1.14,1.14,0,0,0,.58,0h0l.26-.11h0a2,2,0,0,0,.23-.18l0,0,.18-.23h0a.83.83,0,0,1,.07-.13l-.17.23s0,0,0,0l-.22.17,0,0-1.64-.94v0l0-.29a.43.43,0,0,0,0,.05l.11-.26a.18.18,0,0,1,0,.07l.18-.22-.15.14-.06.07a1.5,1.5,0,0,0-.19.25l0,0,2,.84h0l-.11.26,0,0-.18.22h0l-.22.17,0,0-.26.11h0l-1.06-1.82-.07.08-.23.3a1,1,0,0,1-.1.17l.17-.22,0,0,.22-.17,0,0,.26-.11h0l1.24,1.6h0l-.17.22a1.53,1.53,0,0,1,.29-.28l-.22.17.08-.06a1.29,1.29,0,0,0,.43-.44,1.43,1.43,0,0,0,.14-.34.54.54,0,0,1,0-.1l-.11.26s0-.07.05-.1a.76.76,0,0,0,.13-.41.74.74,0,0,0,0-.44.77.77,0,0,0-.19-.37.93.93,0,0,0-.31-.28l-.26-.11a1.14,1.14,0,0,0-.58,0l-.26.11a1.21,1.21,0,0,0-.39.39Z"/><path class="cls-1" d="M388.34,144.76h-.58l-.48-.28h0L387,144h0v-.58h0l.11-.26h0l.39-.39h0l.26-.11-.13,0-.13,0-.28.12h0l-.05,0-.23.17h0l0,0h0l-.17.23,0,0a.82.82,0,0,0-.13.4.94.94,0,0,0,0,.44.89.89,0,0,0,.2.37.81.81,0,0,0,.3.28l.26.11a1.14,1.14,0,0,0,.58,0l.26-.11a1.15,1.15,0,0,0,.4-.39v0l-.17.22.05,0-.22.17.08,0-.26.11a.8.8,0,0,1,.21,0h.05a1.31,1.31,0,0,0,.27-.12l.23-.17.17-.23a.54.54,0,0,0,.11-.26l0-.29a1,1,0,0,0,0-.3,1.17,1.17,0,0,0-.28-.48l-.12-.09a.77.77,0,0,0-.37-.19,1,1,0,0,0-.58,0,.77.77,0,0,0-.37.19,1,1,0,0,0-.42.72.9.9,0,0,0,0,.43l.11.26a1,1,0,0,0,.4.39l.26.11a1,1,0,0,0,.58,0Z"/></g></g></svg>